<svg width="200" height="200" viewBox="0 0 200 200" xmlns="http://www.w3.org/2000/svg">
  <defs>
    <filter id="shadow2" x="-20%" y="-20%" width="140%" height="140%">
      <feGaussianBlur in="SourceAlpha" stdDeviation="3.5"/>
      <feOffset dx="2" dy="3" result="offsetblur"/>
      <feComponentTransfer>
        <feFuncA type="linear" slope="0.4"/>
      </feComponentTransfer>
      <feMerge>
        <feMergeNode/>
        <feMergeNode in="SourceGraphic"/>
      </feMerge>
    </filter>
  </defs>
  <g filter="url(#shadow2)">
    <!-- Blue map pin shape -->
    <path d="M 100,25 C 70,25 45,50 45,85 C 45,135 100,175 100,175 C 100,175 155,135 155,85 C 155,50 130,25 100,25 Z" fill="#007BFF"/>

    <!-- Compass Rose -->
    <g stroke="white" stroke-width="2" stroke-linecap="round">
      <!-- Major Axes (N, S, E, W) -->
      <line x1="100" y1="50" x2="100" y2="65" /> <!-- North -->
      <polygon points="100,45 95,55 105,55" fill="white"/>
      <line x1="100" y1="120" x2="100" y2="105" /> <!-- South -->
      <polygon points="100,125 95,115 105,115" fill="white"/>
      <line x1="65" y1="85" x2="80" y2="85" /> <!-- West -->
      <polygon points="60,85 70,80 70,90" fill="white"/>
      <line x1="135" y1="85" x2="120" y2="85" /> <!-- East -->
      <polygon points="140,85 130,80 130,90" fill="white"/>

      <!-- Minor Axes (NE, NW, SE, SW) -->
      <line x1="107.95" y1="77.05" x2="104.77" y2="80.23" /> <!-- NE -->
      <line x1="92.05" y1="77.05" x2="95.23" y2="80.23" /> <!-- NW -->
      <line x1="92.05" y1="92.95" x2="95.23" y2="89.77" /> <!-- SW -->
      <line x1="107.95" y1="92.95" x2="104.77" y2="89.77" /> <!-- SE -->
    </g>

    <!-- AI Eye Design -->
    <circle cx="100" cy="85" r="22" fill="#1976D2"/> <!-- Darker blue iris -->
    <path d="M 100 63 A 22 22 0 0 1 100 107" fill="none" stroke="rgba(255,255,255,0.2)" stroke-width="4"/> <!-- Highlight -->
    
    <!-- Robotic shutter lines -->
    <path d="M 85 70 L 78 63" stroke="white" stroke-width="2.5" stroke-linecap="round"/>
    <path d="M 115 70 L 122 63" stroke="white" stroke-width="2.5" stroke-linecap="round"/>
    <path d="M 85 100 L 78 107" stroke="white" stroke-width="2.5" stroke-linecap="round"/>
    <path d="M 115 100 L 122 107" stroke="white" stroke-width="2.5" stroke-linecap="round"/>

    <!-- Central glowing pupil -->
    <circle cx="100" cy="85" r="8" fill="#28A745"/>
    <circle cx="100" cy="85" r="10" fill="#28A745" fill-opacity="0.3"/>
  </g>
</svg>
